# AST/ASF file generated using VICON BodyLanguage
# -----------------------------------------------
:version 1.10
:name VICON
:units
  mass 1.0
  length 0.45
  angle deg
:documentation
   .ast/.asf automatically generated from VICON data using
   VICON BodyBuilder and BodyLanguage model FoxedUp or BRILLIANT.MOD
:root
   order TX TY TZ RX RY RZ
   axis XYZ
   position 0 0 0  
   orientation 0 0 0 
:bonedata
  begin
     id 1 
     name lhipjoint
     direction 0.567725 -0.736092 0.368589 
     length 2.42353 
     axis 0 0 0  XYZ
  end
  begin
     id 2 
     name lfemur
     direction 0.34202 -0.939693 0  
     length 7.24894  
     axis 0 0 20  XYZ
    dof rx ry rz
    limits (-160.0 20.0)
           (-70.0 70.0)
           (-60.0 70.0)
  end
  begin
     id 3 
     name ltibia
     direction 0.34202 -0.939693 0   
     length 7.6997   
     axis 0 0 20   XYZ
    dof rx
    limits (-10.0 170.0)
  end
  begin
     id 4 
     name lfoot
     direction 0.100767 -0.276854 0.955614   
     length 2.37556   
     axis -90 7.62852e-016 20   XYZ
    dof rx rz
    limits (-45.0 90.0)
           (-70.0 20.0)
  end
  begin
     id 5 
     name ltoes
     direction 1.53592e-011 -4.21894e-011 1   
     length 1.18363   
     axis -90 7.62852e-016 20   XYZ
    dof rx
    limits (-90.0 20.0)
  end
  begin
     id 6 
     name rhipjoint
     direction -0.556459 -0.742938 0.372017   
     length 2.4012  
     axis 0 0 0  XYZ 
  end
  begin
     id 7 
     name rfemur
     direction -0.34202 -0.939693 0   
     length 7.5119   
     axis 0 0 -20   XYZ
    dof rx ry rz
    limits (-160.0 20.0)
           (-70.0 70.0)
           (-70.0 60.0)
  end
  begin
     id 8 
     name rtibia
     direction -0.34202 -0.939693 0   
     length 7.50155   
     axis 0 0 -20   XYZ
    dof rx
    limits (-10.0 170.0)
 end
 begin
     id 9 
     name rfoot
     direction -0.118427 -0.325376 0.938139   
     length 2.32487  
     axis -90 -7.62852e-016 -20   XYZ
    dof rx rz
    limits (-45.0 90.0)
           (-20.0 70.0)
  end
  begin
     id 10 
     name rtoes
     direction -1.53525e-011 -4.21868e-011 1   
     length 1.15233   
     axis -90 -7.62852e-016 -20   XYZ
    dof rx
    limits (-90.0 20.0)
  end
  begin
     id 11 
     name lowerback
     direction 0.0287568 0.999577 -0.00434502   
     length 2.15243   
     axis 0 0 0   XYZ
    dof rx ry rz
    limits (-20.0 45.0)
           (-30.0 30.0)
           (-30.0 30.0)
  end
  begin
     id 12 
     name upperback
     direction 0.0294009 0.99956 0.00404628   
     length 2.15427   
     axis 0 0 0   XYZ
    dof rx ry rz
    limits (-20.0 45.0)
           (-30.0 30.0)
           (-30.0 30.0)
  end
  begin
     id 13 
     name thorax
     direction 0.0151014 0.999868 0.0059419   
     length 2.14898   
     axis 0 0 0   XYZ
    dof rx ry rz
    limits (-20.0 45.0)
           (-30.0 30.0)
           (-30.0 30.0)
  end
  begin
     id 14 
     name lowerneck
     direction -0.0249197 0.989906 0.139515   
     length 1.6861   
     axis 0 0 0   XYZ
    dof rx ry rz
    limits (-20.0 45.0)
           (-30.0 30.0)
           (-30.0 30.0)
  end
  begin
     id 15 
     name upperneck
     direction 0.0438463 0.988795 -0.142693   
     length 1.71276   
     axis 0 0 0   XYZ
    dof rx ry rz
    limits (-20.0 45.0)
           (-30.0 30.0)
           (-30.0 30.0)
  end
  begin
     id 16
     name head
     direction 0.0148499 0.997845 -0.0639186  
     length 1.7209  
     axis 0 0 0   XYZ
    dof rx ry rz
    limits (-20.0 45.0)
           (-30.0 30.0)
           (-30.0 30.0)
  end
  begin
     id 17 
     name lclavicle
     direction 0.940298 0.323464 -0.105876  
     length 3.9048  
     axis 0 0 0   XYZ
    dof ry rz
    limits (-20.0 10.0)
           (0.0 20.0)
  end
  begin
     id 18 
     name lhumerus
     direction 1 -4.48954e-011 -4.9675e-028   
     length 4.6851   
     axis 180 -30 -90   XYZ
    dof rx ry rz
    limits (-60.0 90.0)
           (-90.0 90.0)
           (-90.0 90.0)
  end
  begin
     id 19
     name lradius
     direction 1 -4.48992e-011 -1.03359e-026   
     length 3.39626   
     axis 180 -30 -90   XYZ
    dof rx
    limits (-10.0 170.0)
  end
  begin
     id 20
     name lwrist
     direction 1 -4.48906e-011 -1.67336e-026   
     length 1.69813   
     axis 9.90442e-015 90 90   XYZ
    dof ry
    limits (-180.0 0.0)
 end
  begin
     id 21 
     name lhand
     direction 1 -4.49006e-011 -3.34673e-026   
     length 0.486078   
     axis 2.1355e-014 90 90   XYZ
    dof rx rz
    limits (-90.0 90.0)
           (-45.0 45.0)
  end
  begin
     id 22 
     name lfingers
     direction 1 -4.48992e-011 -6.69345e-026   
     length 0.391889   
     axis 4.27099e-014 90 90   XYZ
    dof rx
    limits (0.0 90.0)
  end
  begin
     id 23
     name lthumb
     direction 0.707107 -6.34926e-011 0.707107   
     length 0.562676   
     axis -90 45 2.85299e-015   XYZ
    dof rx rz
    limits (-45.0 45.0)
           (-45.0 45.0)
  end
  begin
     id 24 
     name rclavicle
     direction -0.882459 0.414895 -0.221648   
     length 3.44646  
     axis 0 0 0   XYZ 
    dof ry rz
    limits (-10.0 20.0)
           (-20.0 0.0)
  end
  begin
     id 25 
     name rhumerus
     direction -1 -4.48962e-011 -2.37984e-027  
     length 5.55576   
     axis 180 30 90   XYZ
    dof rx ry rz
    limits (-90.0 60.0)
           (-90.0 90.0)
           (-90.0 90.0)
  end
  begin
     id 26 
     name rradius
     direction -1 -4.48982e-011 -6.86791e-027   
     length 3.32774   
     axis 180 30 90   XYZ
    dof rx
    limits (-10.0 170.0)
  end
  begin
     id 27 
     name rwrist
     direction -1 -4.48961e-011 -1.67336e-026   
     length 1.66387   
     axis 9.90442e-015 -90 -90   XYZ
    dof ry
    limits (-180.0 0.0)
  end
  begin
     id 28
     name rhand
     direction -1 -4.4897e-011 -3.34673e-026   
     length 0.507628   
     axis 2.1355e-014 -90 -90   XYZ
    dof rx rz
    limits (-90.0 90.0)
           (-45.0 45.0)
  end
  begin
     id 29
     name rfingers
     direction -1 -4.48854e-011 -6.69345e-026   
     length 0.409263   
     axis 4.27099e-014 -90 -90   XYZ
    dof rx
    limits (0.0 90.0)
  end
  begin
     id 30
     name rthumb
     direction -0.707107 -6.34913e-011 0.707107   
     length 0.587622   
     axis -90 -45 -2.85299e-015   XYZ
    dof rx rz
    limits (-45.0 45.0)
           (-45.0 45.0)
  end
:hierarchy
  begin
    root lhipjoint rhipjoint lowerback
    lhipjoint lfemur
    lfemur ltibia
    ltibia lfoot
    lfoot ltoes
    rhipjoint rfemur
    rfemur rtibia
    rtibia rfoot
    rfoot rtoes
    lowerback upperback
    upperback thorax
    thorax lowerneck lclavicle rclavicle
    lowerneck upperneck
    upperneck head
    lclavicle lhumerus
    lhumerus lradius
    lradius lwrist
    lwrist lhand lthumb
    lhand lfingers
    rclavicle rhumerus
    rhumerus rradius
    rradius rwrist
    rwrist rhand rthumb
    rhand rfingers
  end

#!OML:ASF E:\motion texture\Top Level 1\Subject 1\Session 1\male.ASF
:FULLY-SPECIFIED
:DEGREES
51
root 42.3224 17.9311 6.62994 122.097 -85.6451 -113.403
lowerback -4.13383 -0.720274 2.59282
upperback -3.05499 -1.14399 3.45624
thorax -0.800869 -0.629199 2.05948
lowerneck -10.4517 -6.02999 -11.7557
upperneck 14.0081 -7.73848 8.69038
head 6.78721 -3.73618 3.9955
rclavicle 1.55922e-015 -2.62396e-014
rhumerus -36.5642 -8.15713 -76.1895
rradius 25.3312
rwrist 10.6745
rhand -11.6261 -22.3874
rfingers 7.12502
rthumb 14.4173 -51.8667
lclavicle 1.55922e-015 -2.62396e-014
lhumerus -42.5999 14.7816 78.7626
lradius 27.8777
lwrist -23.8132
lhand -10.2144 17.199
lfingers 7.12502
lthumb 15.7772 46.576
rfemur -11.4873 1.30414 26.6068
rtibia 14.6291
rfoot -7.866 -14.3348
rtoes 17.3529
lfemur -9.20047 -1.19663 -15.1829
ltibia 11.2365
lfoot -8.68333 8.50135
ltoes 8.21117
52
root 42.3194 17.9309 6.62797 122.398 -85.6457 -113.684
lowerback -4.28285 -0.683213 2.63447
upperback -2.87916 -1.10578 3.39947
thorax -0.539177 -0.607269 1.97414
lowerneck -10.7745 -6.08049 -11.6435
upperneck 13.9794 -7.78897 8.7248
head 6.83653 -3.74156 3.97564
rclavicle -1.63997e-015 2.06736e-014
rhumerus -36.3131 -8.40446 -76.2559
rradius 25.3074
rwrist 10.719
rhand -11.6095 -22.3509
rfingers 7.12502
rthumb 14.4333 -51.829
lclavicle -1.63997e-015 2.06736e-014
lhumerus -42.2297 14.7269 78.7961
lradius 27.8484
lwrist -23.8147
lhand -10.2194 17.189
lfingers 7.12502
lthumb 15.7724 46.5664
rfemur -11.5194 1.31572 26.6047
rtibia 14.6668
rfoot -7.88066 -14.3299
rtoes 17.3234
lfemur -9.18989 -1.20761 -15.1882
ltibia 11.2027
lfoot -8.67805 8.51855
ltoes 8.21682
53
root 42.3164 17.9306 6.62582 122.666 -85.6452 -113.93
lowerback -4.51619 -0.650003 2.69278
upperback -2.64926 -1.07884 3.33102
thorax -0.175213 -0.589809 1.86563
lowerneck -11.1028 -6.12711 -11.5214
upperneck 13.8964 -7.83493 8.77871
head 6.86924 -3.74205 3.96082
rclavicle -1.06598e-014 1.59028e-014
rhumerus -35.9764 -8.66978 -76.3601
rradius 25.2808
rwrist 10.7736
rhand -11.6024 -22.2844
rfingers 7.12502
rthumb 14.4402 -51.762
lclavicle -1.06598e-014 1.59028e-014
lhumerus -41.7725 14.6912 78.8267
lradius 27.8116
lwrist -23.8189
lhand -10.2178 17.1854
lfingers 7.12502
lthumb 15.7739 46.5627
rfemur -11.5561 1.32479 26.6056
rtibia 14.7107
rfoot -7.89644 -14.3246
rtoes 17.2863
lfemur -9.18475 -1.21695 -15.19
ltibia 11.1748
lfoot -8.67195 8.53277
ltoes 8.21822
54
root 42.3134 17.9303 6.62351 122.894 -85.6432 -114.137
lowerback -4.80904 -0.620405 2.76371
upperback -2.38001 -1.06142 3.25453
thorax 0.262099 -0.575903 1.74083
lowerneck -11.4371 -6.16963 -11.3892
upperneck 13.7746 -7.87623 8.84446
head 6.89009 -3.73846 3.94857
rclavicle 3.95085e-015 -2.78299e-015
rhumerus -35.5755 -8.94245 -76.4953
rradius 25.2552
rwrist 10.835
rhand -11.5975 -22.2085
rfingers 7.12502
rthumb 14.4448 -51.6858
lclavicle 3.95085e-015 -2.78299e-015
lhumerus -41.2539 14.6647 78.8583
lradius 27.7755
lwrist -23.8158
lhand -10.2086 17.1874
lfingers 7.12502
lthumb 15.7828 46.564
rfemur -11.596 1.32969 26.6101
rtibia 14.7596
rfoot -7.91516 -14.3185
rtoes 17.2487
lfemur -9.1854 -1.22163 -15.1879
ltibia 11.1529
lfoot -8.66319 8.54316
ltoes 8.19085
55
root 42.3105 17.9298 6.62107 123.109 -85.6391 -114.33
lowerback -5.12145 -0.593815 2.84108
upperback -2.09662 -1.0501 3.17479
thorax 0.72473 -0.56413 1.60918
lowerneck -11.7784 -6.20842 -11.2547
upperneck 13.643 -7.91342 8.91578
head 6.90865 -3.73227 3.93807
rclavicle 1.57537e-014 -3.53837e-014
rhumerus -35.1477 -9.20291 -76.6527
rradius 25.2353
rwrist 10.8909
rhand -11.5962 -22.1184
rfingers 7.12502
rthumb 14.4461 -51.5956
lclavicle 1.57537e-014 -3.53837e-014
lhumerus -40.7138 14.6442 78.8884
lradius 27.7427
lwrist -23.8038
lhand -10.1936 17.1944
lfingers 7.12502
lthumb 15.7972 46.5699
rfemur -11.639 1.33157 26.6172
rtibia 14.8143
rfoot -7.93486 -14.3091
rtoes 17.2223
lfemur -9.18821 -1.22974 -15.1815
ltibia 11.1349
lfoot -8.65921 8.55688
ltoes 8.18222
56
root 42.3076 17.9292 6.6185 123.337 -85.6347 -114.537
lowerback -5.3938 -0.570264 2.91262
upperback -1.83789 -1.04045 3.09931
thorax 1.13997 -0.553134 1.48651
lowerneck -12.124 -6.24354 -11.1288
upperneck 13.5394 -7.9469 8.98523
head 6.93673 -3.72518 3.92874
rclavicle 6.65929e-015 -1.39149e-014
rhumerus -34.7515 -9.42566 -76.8137
rradius 25.232
rwrist 10.9303
rhand -11.594 -22.0369
rfingers 7.12502
rthumb 14.4482 -51.5139
lclavicle 6.65929e-015 -1.39149e-014
lhumerus -40.2132 14.6183 78.9182
lradius 27.7218
lwrist -23.7785
lhand -10.1733 17.221
lfingers 7.12502
lthumb 15.8167 46.5949
rfemur -11.6841 1.32653 26.624
rtibia 14.8735
rfoot -7.95703 -14.2929
rtoes 17.2059
lfemur -9.19358 -1.23505 -15.1754
ltibia 11.122
lfoot -8.65715 8.57039
ltoes 8.15413
57
root 42.3048 17.9286 6.61586 123.591 -85.6286 -114.771
lowerback -5.60282 -0.548494 2.9732
upperback -1.61891 -1.02889 3.03283
thorax 1.47957 -0.541723 1.38088
lowerneck -12.4681 -6.27675 -11.0124
upperneck 13.4758 -7.97859 9.0417
head 6.977 -3.71914 3.91702
rclavicle 1.54058e-015 -8.34896e-015
rhumerus -34.4105 -9.60173 -76.9666
rradius 25.2508
rwrist 10.9495
rhand -11.5757 -21.9881
rfingers 7.12502
rthumb 14.4659 -51.4639
lclavicle 1.54058e-015 -8.34896e-015
lhumerus -39.7773 14.5839 78.9497
lradius 27.7149
lwrist -23.7443
lhand -10.1577 17.2538
lfingers 7.12502
lthumb 15.8318 46.6264
rfemur -11.7293 1.31724 26.6311
rtibia 14.9363
rfoot -7.97864 -14.2694
rtoes 17.1943
lfemur -9.19798 -1.24146 -15.1687
ltibia 11.1112
lfoot -8.65752 8.58899
ltoes 8.12607
58
root 42.3021 17.9279 6.61314 123.867 -85.6213 -115.029
lowerback -5.7215 -0.527435 3.0166
upperback -1.45799 -1.01163 2.97963
thorax 1.7097 -0.528781 1.30066
lowerneck -12.8069 -6.30696 -10.9061
upperneck 13.4687 -8.0072 9.07736
head 7.03367 -3.71426 3.90069
rclavicle 1.2921e-015 -1.47101e-014
rhumerus -34.1535 -9.72432 -77.0978
rradius 25.2926
rwrist 10.9401
rhand -11.5513 -21.9601
rfingers 7.12502
rthumb 14.4894 -51.4342
lclavicle 1.2921e-015 -1.47101e-014
lhumerus -39.4336 14.5324 78.9854
lradius 27.7251
lwrist -23.699
lhand -10.148 17.2951
lfingers 7.12502
lthumb 15.8411 46.667
rfemur -11.7729 1.30713 26.6382
rtibia 14.9989
rfoot -7.99942 -14.2424
rtoes 17.1907
lfemur -9.20299 -1.24525 -15.1622
ltibia 11.1052
lfoot -8.66144 8.6073
ltoes 8.08465
59
root 42.2993 17.9271 6.61032 124.183 -85.612 -115.329
lowerback -5.73178 -0.505484 3.03671
upperback -1.36709 -0.984851 2.94418
thorax 1.80804 -0.513031 1.25415
lowerneck -13.1405 -6.338 -10.8143
upperneck 13.532 -8.0368 9.0852
head 7.11158 -3.71318 3.87766
rclavicle -6.70898e-015 -1.98785e-015
rhumerus -33.9998 -9.79159 -77.1942
rradius 25.3569
rwrist 10.9063
rhand -11.5227 -21.9479
rfingers 7.12502
rthumb 14.5169 -51.42
lclavicle -6.70898e-015 -1.98785e-015
lhumerus -39.1998 14.4639 79.0274
lradius 27.7522
lwrist -23.6516
lhand -10.1492 17.3367
lfingers 7.12502
lthumb 15.84 46.7087
rfemur -11.8132 1.29741 26.6457
rtibia 15.0593
rfoot -8.01975 -14.2111
rtoes 17.1899
lfemur -9.20525 -1.24999 -15.155
ltibia 11.1004
lfoot -8.67161 8.63001
ltoes 8.07249
60
root 42.2964 17.9262 6.60741 124.552 -85.5995 -115.683
lowerback -5.6602 -0.482972 3.03498
upperback -1.33833 -0.950674 2.9262
thorax 1.7974 -0.495414 1.23959
lowerneck -13.4341 -6.36635 -10.7452
upperneck 13.6397 -8.06451 9.07775
head 7.19708 -3.71489 3.85445
rclavicle 1.2101e-014 -2.5842e-014
rhumerus -33.9431 -9.80197 -77.2582
rradius 25.44
rwrist 10.8389
rhand -11.5002 -21.9339
rfingers 7.12502
rthumb 14.5386 -51.4045
lclavicle 1.2101e-014 -2.5842e-014
lhumerus -39.0679 14.3858 79.0736
lradius 27.7908
lwrist -23.606
lhand -10.1643 17.378
lfingers 7.12502
lthumb 15.8254 46.7512
rfemur -11.8494 1.29139 26.6544
rtibia 15.116
rfoot -8.03915 -14.1764
rtoes 17.184
lfemur -9.20615 -1.25 -15.1475
ltibia 11.0977
lfoot -8.68262 8.65565
ltoes 8.05053
